<svg width="24" height="33" viewBox="0 0 24 33" fill="none" xmlns="http://www.w3.org/2000/svg">
<line x1="12.4783" y1="10.4355" x2="12.4783" y2="30.2616" stroke="#DFEFFE" stroke-width="2"/>
<line x1="2.08696" y1="19.8691" x2="24" y2="19.8691" stroke="#DFEFFE" stroke-width="2"/>
<path d="M12.0281 10.0717C11.9578 10.0717 11.8875 10.0665 11.8185 10.0548C10.4708 9.83214 5.96316 8.9988 4.54883 7.58473C2.81706 5.85297 2.81706 3.03407 4.54883 1.30207C5.38736 0.462233 6.50326 0 7.68946 0C8.87566 0 9.99153 0.462233 10.8301 1.30077C12.2012 2.67187 13.028 6.95177 13.2793 8.43877C13.3093 8.54684 13.3249 8.66142 13.3249 8.7799C13.3249 9.49473 12.7547 10.073 12.0281 10.0717ZM7.68946 2.58206C7.19206 2.58206 6.72593 2.77607 6.37436 3.12633C5.6491 3.85159 5.6491 5.03126 6.37436 5.75783C6.79363 6.17709 8.54103 6.72919 10.3927 7.14586C9.97733 5.29429 9.42396 3.54686 9.00466 3.12753C8.6544 2.77466 8.18686 2.58206 7.68946 2.58206Z" fill="#0071E3"/>
<path d="M12.0281 10.0717C11.6883 10.0717 11.3588 9.93762 11.1153 9.69413C10.8211 9.39986 10.6869 8.9819 10.7547 8.57173C10.9773 7.22407 11.8107 2.7164 13.226 1.30207C14.0633 0.462233 15.1792 0 16.3667 0C17.5529 0 18.6687 0.462233 19.5073 1.30077C21.2391 3.03253 21.2391 5.85143 19.5073 7.58343C18.0932 8.9975 13.5853 9.83213 12.2376 10.0548C12.1673 10.0652 12.0984 10.0717 12.0281 10.0717ZM16.3668 2.58207C15.8694 2.58207 15.4032 2.77477 15.0517 3.12633C14.6324 3.5456 14.0803 5.293 13.6636 7.14467C15.5152 6.7293 17.2626 6.17593 17.6833 5.75663C18.4086 5.03137 18.4086 3.85037 17.6833 3.12513C17.3304 2.77617 16.8629 2.58207 16.3668 2.58207Z" fill="#0071E3"/>
<path fill-rule="evenodd" clip-rule="evenodd" d="M5 11.3477H19C20.1046 11.3477 21 12.2431 21 13.3477V14.6087H24V13.3477C24 10.5862 21.7614 8.34766 19 8.34766H5C2.23858 8.34766 0 10.5862 0 13.3477V27.3477C0 30.1091 2.23858 32.3477 5 32.3477H19C21.7614 32.3477 24 30.1091 24 27.3477V25.0435H21V27.3477C21 28.4522 20.1046 29.3477 19 29.3477H5C3.89543 29.3477 3 28.4522 3 27.3477V13.3477C3 12.2431 3.89543 11.3477 5 11.3477Z" fill="#0071E3"/>
</svg>
